<svg style="position: absolute; width: 0; height: 0; overflow: hidden;" version="1.1" xmlns="http://www.w3.org/2000/svg">
<defs>
    <symbol id="icon-clock" >
    <path opacity=".037" d="M28.463 741.897v.001c25.039 72.422 92.001 133.732 183.903 168.195 44.152 16.582 90.803 26.372 138.554 29.169 9.392.5 18.782.799 28.171.799 31.367 0 62.534-3.096 92.801-9.19M28.463 741.897l443.528 189.464M28.463 741.897c-5.786-16.66-9.678-34.72-11.475-53.683v-.002c-3.593-36.533-.201-76.677 10.49-122.637v-.001c7.9-34.2 18.697-80.887 33.992-133.072v-.001c35.737-122.38 78.439-214.821 130.678-282.725-52.239 67.938-94.983 160.404-130.637 282.745-15.205 52.115-26.107 98.826-33.908 133.029-10.709 45.938-14.117 86.094-10.51 122.66v.001c1.904 18.934 5.711 36.973 11.525 53.615 25.062 72.478 92.1 133.667 183.797 168.103v.001c44.148 16.517 90.697 26.328 138.446 29.131 40.842 2.402 81.586-.401 121.029-8.41 60.165-12.213 115.828-35.739 165.285-69.979 35.69-24.71 67.505-54.692 94.721-88.541M28.463 741.897l754.884-48.667c-14.725 28.168-32.001 54.621-51.451 78.901m-260.004 158.74l.099.49m-.099-.49s0 0 0 0l.099.49m-.099-.49c60.235-12.187 115.871-35.76 165.414-70.021 35.176-24.347 67.061-54.356 94.59-88.719m-259.905 159.23c60.3-12.2 116-35.8 165.6-70.1 60.1-41.6 110.6-99.7 146.2-167.8m-51.895 78.67c19.658-24.45 36.916-50.919 51.499-78.876l.396.206m0 0l-.395-.206L638.791 79.161m145 614.3c35.7-68.5 54.8-144.5 55.2-219.8.5-92.2-23.5-184.6-67.5-260.4-34.4-59.2-80.3-105.6-132.7-134.1m0 0l-.24.44c-82.346-44.871-158.55-65.232-226.426-60.64-83.804 5.786-157.664 49.567-219.687 130.438 61.958-80.65 135.865-124.526 219.618-130.336h.003c6.31-.401 12.521-.602 18.932-.602 63.007 0 132.69 20.635 207.538 61.16l.001.001c52.292 28.45 98.054 74.821 132.393 133.888l-.432.251.432-.251c43.947 75.681 67.968 168.069 67.468 260.054-.196 37.439-4.937 74.58-13.788 110.579 8.979-36.349 13.691-73.502 13.888-110.484.499-92.116-23.48-184.428-67.433-260.146-34.361-59.133-80.198-105.462-132.506-133.912l.239-.44z" fill="url(#paint0_linear)" stroke="#DFECEF"/><path opacity=".074" d="M44.062 741.394h0c-5.786-16.262-9.778-33.824-11.774-52.287v-.001c-3.993-35.932-1-75.075 8.99-119.836l.001-.001c7.499-34.096 18.096-79.782 32.991-130.166v-.001c34.59-118.166 78.167-211 129.313-275.931l.001-.002C265.118 84.555 337.595 42.049 419.122 36.86c65.975-3.992 140.38 16.368 220.827 60.739h.001c50.81 27.951 95.448 73.081 129.009 130.614v.001c43.153 73.819 66.832 163.631 66.832 252.947 0 47.961-7.887 96.309-23.098 142.742 14.925-45.806 22.898-94.073 22.898-142.842.1-89.284-23.622-179.072-66.769-252.852-33.538-57.466-78.2-102.636-128.99-130.586C566.184 57.097 497.5 36.461 435.691 36.461c-5.512 0-11.022.2-16.528.5l-.004.001c-81.573 5.211-153.995 47.706-215.461 126.19-51.154 65.068-94.677 157.934-129.287 275.967-14.905 50.417-25.408 96.03-32.909 130.135-10.008 44.638-13.016 83.795-9.008 119.762 2.004 18.437 6.012 36.074 11.725 52.311v.002c25.063 70.475 90.899 130.364 180.495 164.2 43.148 16.318 88.696 26.028 135.444 29.131h0c40.241 2.603 80.085.201 118.33-7.408 57.967-11.414 113.831-35.041 161.788-68.38 30.798-21.377 58.616-46.753 82.965-75.184-24.599 28.851-52.453 54.261-82.835 75.362l.285.411-.286-.41c-47.942 33.36-103.978 57.033-161.911 68.42l.097.49c-28.4 5.6-57.7 8.4-87.3 8.4-10.3 0-20.7-.3-31.1-1-46.8-3.1-92.4-12.9-135.6-29.2l.177-.467-.001-.001c-41.152-15.582-78.7-37.353-108.651-63.012-34.443-29.55-58.687-63.58-72.054-101.287z" fill="url(#paint1_linear)" stroke="#DFECEF"/><path opacity=".111" d="M130.716 839.582h0c-33.644-28.752-57.59-61.983-70.956-98.592-5.786-15.862-9.877-32.925-12.073-50.889l-.496.061.496-.061c-4.292-34.932-1.799-73.174 7.493-116.934 6.399-29.896 16.595-75.681 31.99-127.262v-.002c33.513-114.021 76.16-203.912 126.559-267.36C163.33 242.026 120.74 331.941 87.211 445.82c-15.305 51.617-25.608 97.332-31.91 127.239-9.308 43.739-11.815 81.996-7.507 116.964 2.205 17.934 6.213 35.072 12.027 50.911 25.064 68.573 89.698 126.959 177.292 160.295l.178-.467-.178.467c42.146 16.018 86.694 25.828 132.342 29.132 39.641 2.903 78.585.7 115.728-6.308h.002c56.468-10.813 111.234-33.841 158.392-66.781a418.786 418.786 0 0033.893-26.275 413.39 413.39 0 01-33.765 26.255c-47.143 32.859-101.877 55.932-158.409 66.819-26.567 5.093-53.935 7.591-81.805 7.591-11.289 0-22.677-.4-34.065-1.199-45.751-3.296-90.203-13.186-132.358-29.169-40.252-15.282-77.101-36.654-106.352-61.712zM367.575 65.443c-50.243 15.462-96.731 47.343-138.918 95.25 24.85-28.227 51.217-50.966 78.496-67.806 19.354-11.894 39.552-21.06 60.422-27.444zm73.216-10.881c-1.121 0-2.236.005-3.347.017 61.202-.79 129.796 19.678 204.203 61.12h.001c50.011 27.75 92.25 70.581 125.511 127.316l.001.001c42.353 71.92 65.831 159.233 66.131 245.848.2 47.653-7.627 95.71-22.916 141.815 14.996-45.478 22.916-93.465 22.716-141.919-.301-86.585-23.823-173.872-66.169-245.752-33.238-56.564-75.499-99.433-125.487-127.183-72.848-40.726-140.333-61.263-200.644-61.263z" fill="url(#paint2_linear)" stroke="#DFECEF"/><g opacity=".148"><mask id="a" fill="#fff"><path d="M415.691 927.962c-12.2 0-24.6-.5-37-1.5-44.7-3.6-88.3-13.4-129.5-29.2-39.4-15.1-75.5-36-104.3-60.5-33.1-28.1-56.6-60.5-70.1-96.2-5.8-15.4-9.9-32.1-12.3-49.7-4.6-34.3-2.7-71.7 5.9-114.3 8.8-43.4 19.2-85.3 31-124.5 33.2-112.1 75.7-200.3 126.3-262 28.6-34.8 59.1-62.2 90.8-81.5 36.4-22.2 75.7-34.5 116.7-36.5 63.1-3.1 131.8 16.7 210 60.8 48.5 27.3 89.7 69.1 122.2 124.1 41.5 70.1 64.8 155 65.5 239 .7 69.4-16.3 139.8-49.1 203.6-32.5 63.3-79.1 117.3-134.8 156.2-46.4 32.5-100 55-155.2 65.3-24.4 4.7-50 6.9-76.1 6.9zm30.6-855c-4.3 0-8.7.1-12.9.3-77.3 3.9-145 42.3-206.7 117.6-50.5 61.6-93 149.6-126.1 261.6-11.7 39.2-22.1 81-30.9 124.4-8.6 42.5-10.5 79.7-5.9 113.9 2.4 17.4 6.5 34.1 12.2 49.4 25 66.4 88.3 123.3 173.7 156 41.1 15.7 84.5 25.5 129.1 29.1 39 3.1 77 1.3 113-5.3 55-10.2 108.5-32.7 154.8-65.1 114.4-79.9 184.7-217.4 183.4-358.8-.7-83.7-23.9-168.4-65.4-238.4-32.5-54.9-73.5-96.5-121.8-123.7-72.8-40.9-137.2-61-196.5-61z"/></mask><path d="M415.691 927.962c-12.2 0-24.6-.5-37-1.5-44.7-3.6-88.3-13.4-129.5-29.2-39.4-15.1-75.5-36-104.3-60.5-33.1-28.1-56.6-60.5-70.1-96.2-5.8-15.4-9.9-32.1-12.3-49.7-4.6-34.3-2.7-71.7 5.9-114.3 8.8-43.4 19.2-85.3 31-124.5 33.2-112.1 75.7-200.3 126.3-262 28.6-34.8 59.1-62.2 90.8-81.5 36.4-22.2 75.7-34.5 116.7-36.5 63.1-3.1 131.8 16.7 210 60.8 48.5 27.3 89.7 69.1 122.2 124.1 41.5 70.1 64.8 155 65.5 239 .7 69.4-16.3 139.8-49.1 203.6-32.5 63.3-79.1 117.3-134.8 156.2-46.4 32.5-100 55-155.2 65.3-24.4 4.7-50 6.9-76.1 6.9zm30.6-855c-4.3 0-8.7.1-12.9.3-77.3 3.9-145 42.3-206.7 117.6-50.5 61.6-93 149.6-126.1 261.6-11.7 39.2-22.1 81-30.9 124.4-8.6 42.5-10.5 79.7-5.9 113.9 2.4 17.4 6.5 34.1 12.2 49.4 25 66.4 88.3 123.3 173.7 156 41.1 15.7 84.5 25.5 129.1 29.1 39 3.1 77 1.3 113-5.3 55-10.2 108.5-32.7 154.8-65.1 114.4-79.9 184.7-217.4 183.4-358.8-.7-83.7-23.9-168.4-65.4-238.4-32.5-54.9-73.5-96.5-121.8-123.7-72.8-40.9-137.2-61-196.5-61z" fill="url(#paint3_linear)"/><path d="M378.691 926.462l.08-.996-.08.996zm-129.5-29.2l.358-.933-.358.933zm-104.3-60.5l.648-.761-.001-.001-.647.762zm-70.1-96.2l-.936.353v.001l.936-.354zm-12.3-49.7l-.991.133v.002l.99-.135zm5.9-114.3l-.98-.198v.001l.98.197zm31-124.5l.957.289.002-.005-.96-.284zm126.3-262l-.773-.635v.001l.773.634zm90.8-81.5l.52.854h.001l-.521-.854zm116.7-36.5l.049 1-.049-1zm210 60.8l-.491.871v.001l.491-.872zm122.2 124.1l-.861.509v.001l.861-.51zm65.5 239l-1 .009v.001l1-.01zm-49.1 203.6l-.89-.457v.001l.89.456zm-134.8 156.2l-.573-.819h-.001l.574.819zm-155.2 65.3l-.184-.983-.005.001.189.982zm-58.4-847.8l-.048-.999h-.003l.051 1zm-206.7 117.6l.773.634-.773-.634zm-126.1 261.6l.958.286.001-.002-.959-.284zm-30.9 124.4l-.98-.198.98.198zm-5.9 113.9l-.991.134v.003l.99-.137zm12.2 49.4l-.937.349.001.004.936-.353zm173.7 156l-.358.934h.001l.357-.934zm129.1 29.1l-.081.997h.002l.079-.997zm113-5.3l.18.984h.002l-.182-.984zm154.8-65.1l-.573-.819h-.001l.574.819zm183.4-358.8l-1 .009v.001l1-.01zm-65.4-238.4l-.861.51h.001l.86-.51zm-121.8-123.7l.49-.871-.49.871zm-227.1 793a460.79 460.79 0 01-36.92-1.496l-.161 1.993a462.462 462.462 0 0037.081 1.503v-2zm-36.92-1.496c-44.607-3.593-88.113-13.372-129.222-29.137l-.716 1.867c41.291 15.835 84.985 25.656 129.778 29.263l.16-1.993zm-129.222-29.137c-39.308-15.065-75.306-35.91-104.01-60.328l-1.296 1.523c28.896 24.582 65.097 45.537 104.59 60.672l.716-1.867zM145.538 836c-32.987-28.004-56.379-60.268-69.812-95.791l-1.87.707c13.567 35.877 37.175 68.413 70.388 96.609l1.294-1.525zm-69.811-95.79c-5.771-15.323-9.854-31.949-12.245-49.483l-1.982.27c2.41 17.667 6.526 34.441 12.355 49.918l1.872-.705zm-12.245-49.481c-4.582-34.166-2.694-71.452 5.89-113.969l-1.961-.395c-8.617 42.683-10.53 80.197-5.911 114.63l1.982-.266zm5.889-113.968c8.794-43.373 19.187-85.243 30.977-124.41l-1.915-.577c-11.81 39.233-22.217 81.163-31.022 124.59l1.96.397zm30.979-124.415c33.178-112.026 75.629-200.089 126.114-261.65l-1.546-1.268c-50.715 61.84-93.264 150.177-126.486 262.35l1.918.568zm126.113-261.649c28.544-34.731 58.962-62.05 90.548-81.281l-1.04-1.708c-31.814 19.37-62.396 46.851-91.053 81.719l1.545 1.27zm90.549-81.281c36.263-22.117 75.401-34.363 116.228-36.355l-.098-1.998c-41.174 2.009-80.635 14.362-117.172 36.646l1.042 1.707zM433.24 73.061c62.849-3.088 131.359 16.629 209.46 60.672l.982-1.742c-78.3-44.156-147.189-64.04-210.54-60.927l.098 1.997zm209.46 60.673c48.326 27.202 89.406 68.866 121.83 123.737l1.722-1.017c-32.577-55.129-73.896-97.065-122.571-124.463l-.981 1.743zm121.83 123.738c41.408 69.943 64.662 154.67 65.361 238.499l2-.017c-.702-84.171-24.047-169.245-65.64-239.501l-1.721 1.019zm65.361 238.5c.698 69.232-16.261 139.472-48.99 203.133l1.779.915c32.872-63.94 49.913-134.499 49.211-204.068l-2 .02zm-48.99 203.134c-32.429 63.162-78.923 117.034-134.483 155.837l1.145 1.639c55.841-38.998 102.547-93.125 135.117-156.563l-1.779-.913zM646.417 854.943c-46.283 32.419-99.75 54.863-154.81 65.136l.367 1.966c55.341-10.326 109.074-32.882 155.591-65.464l-1.148-1.638zM491.602 920.08c-24.33 4.687-49.866 6.882-75.911 6.882v2c26.155 0 51.819-2.204 76.289-6.918l-.378-1.964zM446.291 71.962c-4.315 0-8.731.1-12.948.301l.095 1.998c4.184-.199 8.568-.299 12.853-.299v-2zm-12.951.302c-77.649 3.917-145.592 42.505-207.423 117.965l1.547 1.267c61.57-75.141 129.027-113.353 205.977-117.235l-.101-1.997zM225.918 190.228c-50.615 61.74-93.164 149.877-126.286 261.951l1.918.567c33.078-111.926 75.528-199.789 125.914-261.25l-1.546-1.268zM99.633 452.176c-11.71 39.231-22.117 81.06-30.922 124.488l1.96.397c8.794-43.372 19.187-85.143 30.878-124.313l-1.916-.572zM68.71 576.664c-8.617 42.583-10.53 79.898-5.911 114.232l1.982-.267c-4.582-34.066-2.694-71.151 5.889-113.568l-1.96-.397zM62.8 690.899c2.408 17.466 6.525 34.238 12.253 49.612l1.874-.698c-5.672-15.225-9.756-31.853-12.147-49.187l-1.98.273zm12.254 49.616c25.128 66.74 88.693 123.81 174.278 156.581l.715-1.868C164.834 862.599 101.799 805.87 76.927 739.81l-1.872.705zm174.279 156.581c41.19 15.735 84.683 25.556 129.376 29.163l.161-1.993c-44.506-3.593-87.813-13.372-128.823-29.038l-.714 1.868zm129.378 29.163c39.081 3.107 77.168 1.304 113.259-5.313l-.36-1.967c-35.91 6.583-73.822 8.38-112.741 5.287l-.158 1.993zm113.261-5.313c55.142-10.227 108.775-32.783 155.191-65.264l-1.147-1.639c-46.184 32.319-99.551 54.762-154.409 64.936l.365 1.967zm155.19-65.264c114.675-80.092 185.131-217.904 183.828-359.629l-2 .019c1.297 141.075-68.847 278.262-182.973 357.971l1.145 1.639zm183.828-359.628c-.702-83.871-23.947-168.745-65.54-238.902l-1.72 1.02c41.407 69.844 64.561 154.37 65.26 237.899l2-.017zm-65.54-238.901c-32.576-55.028-73.695-96.764-122.17-124.062l-.981 1.743c48.126 27.102 89.006 68.566 121.43 123.338l1.721-1.019zm-122.17-124.062C570.39 92.14 505.82 71.962 446.291 71.962v2c59.071 0 123.3 20.023 196.01 60.872l.98-1.743z" fill="#DFECEF" mask="url(#a)"/></g><g opacity=".185"><mask id="b" fill="#fff"><path d="M427.891 923.861c-13.1 0-26.5-.6-40-1.8-43.7-3.9-86.2-13.7-126.4-29.2-38.5-14.9-73.8-35.3-102-59.2-32.4-27.4-55.6-58.8-69.1-93.6-5.8-15-10-31.2-12.6-48.3-4.9-33.1-3.4-70.6 4.4-111.4 5.3-27.5 14.8-71 29.9-121.6 32.9-109.8 74.9-195.6 124.7-254.9 61.6-73.4 128.2-110.6 203.4-113.9 61.2-2.6 128 17.3 204.4 60.9 47 26.8 87 67.4 118.8 120.8 40.7 68.3 63.8 150.6 64.9 231.8 1 67.5-15.3 136-47.1 198.3-31.5 61.7-76.8 114.3-131 152.3-45.5 32-98 54-151.8 63.7-22.5 4.1-46.1 6.1-70.5 6.1zm23.4-832.9c-3.6 0-7.2.1-10.8.2-74.9 3.2-141.1 40.4-202.6 113.5-49.7 59.2-91.6 144.8-124.5 254.5-15.2 50.6-24.6 94-29.9 121.5-7.8 40.7-9.3 78-4.4 111 2.5 17 6.7 33.1 12.5 48 34.2 88.3 121.4 133.2 170.4 152.1 40.1 15.5 82.5 25.3 126.1 29.1 38.4 3.4 75.5 1.9 110.4-4.3 53.6-9.6 106-31.6 151.3-63.5 109.9-77 179.6-214.2 177.6-349.6-1.1-81-24.1-163.1-64.7-231.2-31.7-53.2-71.5-93.7-118.3-120.4-71.8-40.9-135.1-60.9-193.1-60.9z"/></mask><path d="M427.891 923.861c-13.1 0-26.5-.6-40-1.8-43.7-3.9-86.2-13.7-126.4-29.2-38.5-14.9-73.8-35.3-102-59.2-32.4-27.4-55.6-58.8-69.1-93.6-5.8-15-10-31.2-12.6-48.3-4.9-33.1-3.4-70.6 4.4-111.4 5.3-27.5 14.8-71 29.9-121.6 32.9-109.8 74.9-195.6 124.7-254.9 61.6-73.4 128.2-110.6 203.4-113.9 61.2-2.6 128 17.3 204.4 60.9 47 26.8 87 67.4 118.8 120.8 40.7 68.3 63.8 150.6 64.9 231.8 1 67.5-15.3 136-47.1 198.3-31.5 61.7-76.8 114.3-131 152.3-45.5 32-98 54-151.8 63.7-22.5 4.1-46.1 6.1-70.5 6.1zm23.4-832.9c-3.6 0-7.2.1-10.8.2-74.9 3.2-141.1 40.4-202.6 113.5-49.7 59.2-91.6 144.8-124.5 254.5-15.2 50.6-24.6 94-29.9 121.5-7.8 40.7-9.3 78-4.4 111 2.5 17 6.7 33.1 12.5 48 34.2 88.3 121.4 133.2 170.4 152.1 40.1 15.5 82.5 25.3 126.1 29.1 38.4 3.4 75.5 1.9 110.4-4.3 53.6-9.6 106-31.6 151.3-63.5 109.9-77 179.6-214.2 177.6-349.6-1.1-81-24.1-163.1-64.7-231.2-31.7-53.2-71.5-93.7-118.3-120.4-71.8-40.9-135.1-60.9-193.1-60.9z" fill="url(#paint4_linear)"/><path d="M387.891 922.061l-.089.996v.001l.089-.997zm-126.4-29.2l-.361.933h.001l.36-.933zm-102-59.2l.646-.762-.001-.001-.645.763zm-69.1-93.6l-.933.361v.001l.933-.362zm-12.6-48.3l-.99.147.001.004.989-.151zm4.4-111.4l-.982-.189v.002l.982.187zm29.9-121.6l-.958-.287-.001.001.959.286zm124.7-254.9l.766.644v-.001l-.766-.643zm203.4-113.9l-.043-.999h-.001l.044 1zm204.4 60.9l-.496.869.496-.869zm118.8 120.8l-.859.512.859-.512zm64.9 231.8l-1 .014v.001l1-.015zm-47.1 198.3l.89.455-.89-.455zm-131 152.3l-.574-.818h-.002l.576.818zm-151.8 63.7l-.178-.984-.002.001.18.983zm-57.9-826.6l-.028-1-.007.001h-.008l.043 1zm-202.6 113.5l-.765-.643h-.001l.766.643zm-124.5 254.5l.957.288h.001l-.958-.288zm-29.9 121.5l-.982-.189v.001l.982.188zm-4.4 111l.99-.145-.001-.001-.99.146zm12.5 48l.932-.361v-.001l-.932.362zm170.4 152.1l.36-.932v-.001l-.36.933zm126.1 29.1l.088-.996h-.001l-.087.996zm110.4-4.3l.175.985h.001l-.176-.985zm151.3-63.5l-.574-.819-.002.002.576.817zm177.6-349.6l-1 .014v.001l1-.015zm-64.7-231.2l-.859.512v.001l.859-.513zm-118.3-120.4l.495-.868-.495.868zm-216.5 771c-13.07 0-26.44-.598-39.912-1.796l-.177 1.993c13.529 1.202 26.958 1.803 40.089 1.803v-2zm-39.911-1.796c-43.61-3.891-86.018-13.671-126.13-29.137l-.719 1.866c40.289 15.535 82.88 25.355 126.671 29.263l.178-1.992zm-126.128-29.136c-38.41-14.865-73.611-35.212-101.715-59.03l-1.293 1.525c28.296 23.982 63.696 44.435 102.286 59.37l.722-1.865zm-101.716-59.031c-32.29-27.307-55.381-58.575-68.813-93.198l-1.865.723c13.569 34.977 36.877 66.509 69.387 94.002l1.291-1.527zm-68.813-93.197c-5.77-14.926-9.953-31.055-12.544-48.09l-1.977.301c2.61 17.165 6.827 33.436 12.656 48.51l1.865-.721zM78.78 691.615c-4.88-32.965-3.391-70.35 4.393-111.066l-1.965-.375c-7.816 40.884-9.326 78.499-4.406 111.734l1.978-.293zm4.393-111.064c5.295-27.476 14.788-70.943 29.876-121.504l-1.917-.572c-15.111 50.639-24.619 94.173-29.923 121.697l1.964.379zm29.876-121.503c32.878-109.726 74.827-195.385 124.508-254.543l-1.532-1.287c-49.919 59.442-91.97 145.383-124.892 255.256l1.916.574zm124.508-254.544c61.471-73.246 127.829-110.259 202.678-113.543l-.088-1.999c-75.551 3.316-142.394 40.703-204.122 114.257l1.532 1.285zM440.233 90.961c60.947-2.59 127.558 17.224 203.862 60.769l.991-1.737c-76.496-43.655-143.485-63.641-204.938-61.03l.085 1.998zm203.862 60.769c46.83 26.703 86.712 67.17 118.437 120.443l1.718-1.023c-31.876-53.527-71.994-94.26-119.164-121.157l-.991 1.737zm118.437 120.443c40.608 68.147 63.661 150.274 64.759 231.302l2-.027c-1.103-81.373-24.25-163.845-65.041-232.298l-1.718 1.023zm64.759 231.303c.997 67.331-15.262 135.67-46.991 197.831l1.781.909c31.872-62.439 48.212-131.1 47.21-198.769l-2 .029zM780.3 701.307c-31.429 61.561-76.623 114.033-130.683 151.936l1.148 1.637c54.339-38.097 99.745-90.825 131.316-152.664l-1.781-.909zM649.615 853.243c-45.382 31.918-97.747 53.861-151.402 63.534l.355 1.969c53.945-9.727 106.581-31.784 152.198-63.867l-1.151-1.636zm-151.404 63.535c-22.435 4.088-45.975 6.083-70.32 6.083v2c24.454 0 48.114-2.004 70.679-6.116l-.359-1.967zm-46.92-826.817c-3.616 0-7.23.1-10.828.2l.056 2c3.602-.1 7.188-.2 10.772-.2v-2zm-10.843.201c-75.254 3.215-141.696 40.605-203.322 113.856l1.53 1.287c61.373-72.949 127.331-109.96 201.877-113.145l-.085-1.998zM237.125 204.018c-49.819 59.342-91.77 145.083-124.692 254.856l1.916.575c32.878-109.627 74.727-195.086 124.308-254.145l-1.532-1.286zM112.433 458.874c-15.212 50.641-24.62 94.075-29.924 121.598l1.964.379c5.295-27.477 14.688-70.843 29.875-121.402l-1.915-.575zM82.509 580.473c-7.817 40.784-9.328 78.2-4.407 111.335l1.978-.293c-4.88-32.865-3.391-70.05 4.393-110.665l-1.964-.377zM78.1 691.807c2.51 17.069 6.729 33.243 12.558 48.217l1.864-.725c-5.771-14.826-9.953-30.852-12.443-47.783l-1.979.291zm12.557 48.216c34.361 88.714 121.915 133.749 170.973 152.671l.72-1.866C213.408 871.951 126.563 827.185 92.523 739.3l-1.865.723zM261.63 892.694c40.189 15.535 82.682 25.356 126.374 29.164l.174-1.993c-43.508-3.792-85.816-13.571-125.827-29.036l-.721 1.865zm126.373 29.164c38.481 3.407 75.67 1.905 110.663-4.312l-.35-1.969c-34.808 6.183-71.819 7.681-110.137 4.288l-.176 1.993zm110.664-4.312c53.746-9.626 106.282-31.684 151.699-63.667l-1.151-1.635c-45.183 31.817-97.447 53.759-150.901 63.333l.353 1.969zm151.698-63.666c110.174-77.192 180.031-214.706 178.026-350.433l-2 .029c1.995 135.072-67.548 271.959-177.174 348.766l1.148 1.638zm178.026-350.432c-1.103-81.172-24.149-163.445-64.841-231.699l-1.718 1.025c40.508 67.945 63.461 149.873 64.559 230.701l2-.027zM763.55 271.75c-31.775-53.326-71.693-93.96-118.664-120.757l-.991 1.737c46.629 26.602 86.312 66.969 117.937 120.043l1.718-1.023zM644.886 150.993c-71.89-40.952-135.363-61.032-193.595-61.032v2c57.767 0 120.895 19.921 192.605 60.769l.99-1.737z" fill="#DFECEF" mask="url(#b)"/></g><path opacity=".222" d="M93.884 692.681v-.001c-5.289-32.332-4.293-68.773 2.899-108.43 6.696-36.78 16.892-78.962 28.886-118.645h.001c22.195-73.584 61.67-176.3 123.1-247.618 61.236-71.027 126.215-106.833 198.839-109.527 59.172-2.095 124.078 17.761 198.532 60.834h0c45.416 26.151 84.158 65.686 115.121 117.324h0c39.855 66.324 62.631 146.039 64.129 224.452l.5-.009-.5.01c1.298 65.414-14.282 132.034-45.046 192.663-30.465 60.031-74.412 111.267-126.942 148.218l.288.409-.288-.409c-44.642 31.459-95.873 52.929-148.198 62.016-16.384 2.757-33.392 4.458-50.875 5.053 17.487-.613 34.511-2.347 50.945-5.167 52.276-9.013 103.545-30.443 148.105-61.985 107.136-75.297 174.614-209.054 171.911-340.719-1.502-78.385-24.226-158.071-64.072-224.347-30.937-51.561-69.694-91.026-115.077-117.275-70.845-41.126-133.033-61.067-189.851-61.067-2.909 0-5.816.1-8.713.2h-.005c-72.677 2.606-137.698 38.501-198.761 109.474-61.471 71.382-100.795 174.066-123 247.581-12.005 39.716-22.309 81.835-28.913 118.656-7.108 39.543-8.113 76.001-2.902 108.368v.002c2.706 16.533 7.015 32.268 12.83 46.804 22.226 55.633 65.932 93.72 106.929 118.698-41.063-24.988-84.826-63.082-107.101-118.769-5.786-14.564-10.076-30.229-12.77-46.794zM397.34 917.163a464.958 464.958 0 01-47.179-6.983 469.51 469.51 0 0047.183 6.978c.787.078 1.573.153 2.36.226-.788-.072-1.576-.145-2.364-.221z" fill="url(#paint5_linear)" stroke="#DFECEF"/><path opacity=".259" d="M511.873 910.255c50.877-8.513 100.948-29.343 144.707-60.385 104.237-73.497 169.415-203.655 166.111-331.421-1.902-75.586-24.427-152.771-63.472-217.246-30.237-49.96-67.693-88.224-111.575-113.872-69.744-41.026-130.732-60.969-186.253-60.969h-.006c-2.195 0-4.403 0-6.613.1-70.176 2.007-133.795 36.501-194.556 105.269-60.874 68.884-99.599 168.77-121.503 240.485-12.106 39.618-22.011 80.839-27.915 115.763-6.508 38.345-6.911 73.803-1.3 105.469 2.806 16.035 7.216 31.27 13.03 45.404l.001.001c34.281 83.098 117.551 126.264 164.079 144.574l.001.001c38.142 14.916 78.485 24.727 120.029 29.131l.053-.497-.052.497c37.138 3.904 72.583 3.205 105.234-2.304zm0 0l-.082-.493m.082.493h.001l-.083-.493m0 0c50.8-8.5 100.8-29.3 144.5-60.3l-144.5 60.3zm-105.046 2.903h-.002c-41.556-4.396-82.012-14.185-120.069-29.168h-.001c-46.671-18.289-129.902-61.524-164.22-144.626-5.785-14.064-10.176-29.329-13.07-45.396-5.588-31.634-5.191-67.175 1.301-105.529v-.001c5.896-34.975 15.89-76.154 27.885-115.838 21.896-71.785 60.671-171.698 121.497-240.514 60.837-68.83 124.517-103.236 194.74-105.331h.008c2.186-.1 4.375-.1 6.677-.1 55.479 0 116.49 19.957 186.347 60.931 43.818 25.752 81.362 64.089 111.625 114.028l.428-.259-.428.259c39.055 64.425 61.63 141.64 63.428 217.253v.001c1.698 63.514-13.182 128.233-42.947 187.262-29.464 58.43-72.111 108.266-123.142 144.317h-.001c-43.74 31.058-93.87 51.928-144.792 60.415l.082.493-.083-.493c-19.071 3.195-38.943 4.793-59.617 4.793-14.882 0-30.064-.799-45.646-2.497z" fill="url(#paint6_linear)" stroke="#DFECEF"/><path opacity=".296" d="M810.113 446.242c5.917 26.286 9.377 53.006 10.178 79.502 4.005 123.968-58.874 250.427-160.21 322.223-42.96 30.543-91.731 50.874-141.311 58.787-32.051 5.108-65.597 5.607-102.637 1.303-40.542-4.705-79.884-14.516-117.026-29.232 0 0 0 0 0 0l.184-.465c-45.3-17.9-126.4-60-160.6-140.3l671.422-291.818zm0 0c5.95 26.362 9.441 53.161 10.278 79.734 1.997 61.513-12.183 124.431-40.947 181.86-28.465 56.73-69.712 105.366-119.342 140.516l-.001.001c-42.94 30.557-91.767 50.825-141.387 58.813a365.795 365.795 0 01-54.023 3.994c-15.579 0-31.759-.999-48.543-2.897-40.558-4.695-79.915-14.484-117.073-29.168-45.472-17.989-126.606-60.224-160.924-140.73M449.744 144.88c-60.153 4.777-116.027 35.013-170.355 91.993 54.372-57.066 110.27-87.224 170.355-91.993zm12.256-.62h-.004.006c30.739-.666 63.346 5.21 98.424 17.813-33.278-11.931-64.342-17.813-93.735-17.813H462z" fill="url(#paint7_linear)" stroke="#DFECEF"/><path opacity=".333" d="M153.948 737.859v-.001c-5.884-13.263-10.374-27.629-13.568-42.6-4.949-23.509-6.364-48.944-4.332-75.937-1.993 26.878-.528 52.265 4.353 75.742 3.107 15.034 7.718 29.367 13.532 42.599v.001c34.283 77.788 113.445 119.052 157.572 136.663 36.041 14.416 74.382 24.226 113.923 29.231h.001c36.337 4.505 69.084 4.507 100.039-.302 48.182-7.312 95.855-27.145 137.814-57.187C761.918 776.17 822.497 653.31 817.79 533.242c-2.603-70.088-24.629-142.171-62.074-202.943-28.635-46.557-63.889-82.719-104.667-107.266-67.741-40.925-126.332-60.972-179.058-60.972H469.184c-44.423.614-86.827 15.487-128.316 45.18 41.559-29.767 84.011-44.669 128.43-45.28 53.37-.698 112.876 19.154 181.834 60.928l.001.001c40.822 24.553 76.067 60.691 104.732 107.333v.001c37.456 60.727 59.529 132.844 62.126 202.956 2.297 59.613-11.084 120.63-38.948 176.458v.001c-27.465 55.229-67.412 102.465-115.542 136.715h-.001c-42.039 30.057-89.764 49.824-137.881 57.212-15.776 2.297-32.052 3.495-48.928 3.495-16.278 0-33.257-1.098-51.139-3.296-39.557-4.895-77.916-14.784-113.975-29.168-44.174-17.689-123.312-59.026-157.629-136.738zm10.665-252.646a889.42 889.42 0 00-10.404 36.222 897.194 897.194 0 0114.908-50.404 938 938 0 00-4.504 14.182z" fill="url(#paint8_linear)" stroke="#DFECEF"/><path opacity=".37" d="M169.645 737.252l.001.003c25.332 55.65 80.213 102.876 154.331 132.843 35.061 14.084 72.421 23.974 110.88 29.168h.001l-.067.496c18.9 2.5 36.7 3.8 53.7 3.8 15.3 0 29.8-1 43.9-3.1l-362.746-163.21zm0 0c-5.884-12.764-10.473-26.73-13.767-41.3-6.685-29.636-7.885-62.276-3.292-96.925v-.001c3.996-30.663 12.888-68.734 24.882-107.215 20.695-66.183 57.767-157.99 116.783-219.303h0c27.674-28.773 54.336-50.039 81.583-65.209l-.243-.437m-205.946 530.39l483.346-496.89m0 0c-66.7-41.1-124.1-61.1-175.5-61.1h-1c-34.4.2-68.4 9.5-100.9 27.6m277.4 33.5c39.3 24.1 73.4 59.1 101.4 104.1m-101.4-104.1l101.4 104.1m-378.8-137.6l.243.437c32.432-18.063 66.35-27.338 100.658-27.537m-100.901 27.1l100.901-27.1m0 0H477.491c51.27 0 108.578 19.95 175.237 61.025l.001.001c39.225 24.054 73.272 58.994 101.237 103.938 36.656 58.929 58.529 128.446 61.425 195.857v.002c.205 4.406.317 8.816.34 13.228-.025-4.36-.138-8.719-.341-13.074v-.001l-.499.024m-338.399-361l-181.701 93.2c59.6-61.9 119.1-92.2 181.7-92.5h1c51.2 0 108.4 19.9 175 60.9m162.4 299.4c-3-67.3-24.8-136.7-61.4-195.6-27.8-44.8-61.8-79.8-101-103.8m162.4 299.4c5.4 116-52.8 235-148.3 303.2l148.3-303.2zm-162.4-299.4l.262-.426-.001-.001m-.261.427l.261-.427m0 0c-66.64-41.024-123.932-60.973-175.261-60.973H476.488c-62.779.301-122.4 30.693-182.058 92.653-59.084 61.287-96.111 153.081-116.717 219.198m475.039-250.878L177.713 491.813m0 0c-12.006 38.419-20.913 76.548-24.918 107.184-4.607 34.649-3.507 67.31 3.308 96.876 3.307 14.528 7.917 28.461 13.833 41.196 25.368 55.649 80.186 102.823 154.267 132.756l.001.001c35.138 14.115 72.379 24.026 110.82 29.231 35.737 4.805 67.584 5.107 97.438.8 28.709-4.181 57.301-13 84.62-26.018L177.713 491.813zm576.678-147.351c36.7 59 58.6 128.6 61.5 196.1l-61.5-196.1z" fill="url(#paint9_linear)" stroke="#DFECEF"/><path opacity=".407" d="M305.936 286.208h0c59.956-60.256 116.276-88.447 177.155-88.447H483.893c50.331.2 104.624 19.551 170.663 60.976 37.673 23.545 70.524 57.403 97.658 100.658 35.843 57.068 57.472 124.051 60.776 188.64M305.936 286.208l506.555 261.853M305.936 286.208c-61.491 61.892-98.519 159.493-115.222 212.101v.001c-11.906 37.821-20.415 74.852-23.92 104.291v.002c-3.906 33.45-2.305 65.111 4.811 93.976a213.221 213.221 0 0014.033 39.893l.001.002c25.368 53.745 79.084 99.517 150.963 128.849 34.039 13.916 70.378 23.727 107.816 29.232 35.037 5.106 66.085 5.709 94.84 1.801 45.488-6.212 90.764-24.846 131.025-53.89M305.936 286.208l364.055 555.853M812.99 548.035l-.499.026m.499-.026v-.001l-.499.027m.499-.026c6.009 112.372-49.971 227.933-142.707 294.431m142.208-294.405c6 112.2-49.9 227.6-142.5 294m.292.405l-.292-.405m.292.405l-.001.001-.291-.406M185.543 736.647l-.001-.001c-5.884-12.366-10.573-25.834-14.066-39.905-7.084-28.936-8.782-60.575-4.789-94.121l-.496-.059.496.058c3.496-29.46 11.987-66.529 23.881-104.308 16.597-52.691 53.768-150.289 115.178-212.198 60.044-60.444 116.424-88.552 177.245-88.552H483.79c50.268.199 104.575 19.548 170.735 61.023l.001.001c37.727 23.554 70.576 57.396 97.741 100.642l.424-.266-.423.266c35.856 57.03 57.428 124.148 60.823 188.76v.001c6.091 112.426-49.928 228.064-142.692 294.566v.001c-40.339 29.056-85.663 47.722-131.075 54.01-12.579 1.597-25.557 2.496-39.033 2.496-17.574 0-36.049-1.398-55.928-4.295-37.461-5.494-73.722-15.284-107.783-29.168-72.022-29.468-125.705-75.196-151.037-128.951z" fill="url(#paint10_linear)" stroke="#DFECEF"/><path opacity=".444" d="M201.34 736.041h0c-5.885-11.969-10.674-24.938-14.266-38.508v-.002c-7.583-28.234-9.68-58.972-6.386-91.219l-.497-.051.497.051c2.896-28.355 11.086-64.42 22.879-101.499 16.297-51.19 52.867-145.886 113.673-205.094 59.945-58.347 115.224-85.156 173.844-84.358h.001c48.367.598 100.874 20.045 165.137 61.022h.001c36.229 22.955 67.879 55.698 94.245 97.346h.001c35.057 55.233 56.428 119.751 60.123 181.562v.001c6.463 103.322-41.918 209.737-124.208 275.625 82.165-65.802 130.59-172.225 124.106-275.487-3.706-61.889-25.035-126.27-60.077-181.537-26.333-41.552-57.983-74.309-94.254-97.254-64.138-41.024-116.63-60.376-165.061-61.078v0H488.691c-57.777 0-112.296 26.89-171.249 84.342-60.895 59.093-97.325 153.798-113.628 204.906l.477.152-.477-.152c-11.807 37.022-19.916 73.056-22.92 101.399l-.001.002c-3.305 32.253-1.203 62.914 6.314 91.179 3.609 13.63 8.42 26.562 14.336 38.494 25.369 51.74 77.882 96.009 147.656 124.94h.001c33.038 13.616 68.275 23.426 104.712 29.232h.001c34.336 5.406 64.484 6.309 92.141 2.802l-.063-.496.063.496c22.194-2.825 44.411-8.823 66.024-17.725-21.62 8.915-43.837 14.919-66.05 17.733l-.005.001c-10.875 1.496-22.252 2.195-34.132 2.195-18.071 0-37.244-1.597-58.022-4.894-36.463-5.794-71.725-15.584-104.787-29.168-69.924-28.868-122.411-73.298-147.742-124.958zm472.359 104.514l-.015.011.015-.011z" fill="url(#paint11_linear)" stroke="#DFECEF"/><path opacity=".481" d="M194.993 609.919v-.001c2.404-27.349 10.215-62.387 21.922-98.61 16.003-49.609 51.934-141.417 112.033-197.91 36.709-34.509 93.735-80.136 165.643-80.136h.009c1.289 0 2.601 0 3.916.101 46.529 1.106 97.218 20.561 159.447 61.08 34.668 22.444 65.216 54.098 90.749 93.949 34.342 53.366 55.472 115.246 59.478 174.336m-613.197 47.191l612.698-47.157m-612.698 47.157c-2.705 30.955-.101 60.718 7.918 88.283 3.807 13.126 8.618 25.556 14.534 37.087 25.369 49.735 76.679 92.704 144.454 120.935l.192-.462-.192.462c32.035 13.314 66.271 23.225 101.608 29.231 34.135 5.806 62.584 7.011 89.543 3.804l-.059-.497M194.993 609.919l357.998 278.843M808.19 562.728l-.499.034m.499-.034v-.001l-.499.035m.499-.034c7.412 104.577-43.97 212.841-131.006 275.839m130.507-275.805c7.4 104.4-43.9 212.5-130.8 275.4m.293.405l.001-.001-.294-.404m.293.405c-38.461 28.044-81.34 45.58-124.134 50.692l-.059-.497m124.193-50.195l-.293-.405m0 0l-123.9 50.6m-89.514-3.092l-.003-.001c-35.463-5.994-69.626-15.883-101.691-29.268-67.825-28.369-119.116-71.301-144.447-121.066-5.884-11.57-10.773-24.04-14.565-37.112-7.981-27.635-10.577-57.373-7.882-88.317 2.396-27.351 10.185-62.313 21.878-98.59 16.097-49.791 51.966-141.583 112.066-197.989 36.891-34.592 93.866-80.165 165.758-80.165H498.485c46.466 1.098 97.171 20.444 159.533 61.119l.001.001c34.632 22.456 65.184 54.101 90.851 94.05 34.358 53.435 55.428 115.354 59.422 174.464v.001c7.388 104.623-44.03 212.959-130.995 275.96v.001c-38.539 28.055-81.46 45.619-124.265 50.708h-.003c-9.678 1.197-19.558 1.796-29.938 1.796-18.267 0-37.838-1.797-59.614-5.592z" fill="url(#paint12_linear)" stroke="#DFECEF"/><path opacity=".518" d="M233.332 734.827h0c32.419 61.147 94.589 97.389 141.153 117.074 30.965 13.085 64.13 22.975 98.595 29.268 0 0 0 0 0 0l-.089.492-239.659-146.834zm0 0c-5.884-11.071-10.873-23.142-14.864-35.715l14.864 35.715zm-3.217-217.021h0c15.703-48.109 51.036-137.121 110.44-190.816 39.311-35.609 92.834-76.029 159.836-76.029.883 0 1.765.024 2.662.048l.076.003c.926.025 1.869.049 2.862.049h.008l.008.001c45.334 1.504 92.827 20.36 153.96 61.083 33.065 21.943 62.411 52.395 87.243 90.644 33.541 51.563 54.472 110.943 58.779 167.234m-575.874-52.217l329.976 367.455.054.497c41.298-4.51 82.98-21.548 120.74-49.093h.001c84.134-61.498 133.217-166.162 125.103-266.642m-575.874-52.217c-11.508 35.325-18.919 69.366-20.923 95.717v.001m20.923-95.718l-20.923 95.718m596.797-43.501l-.498.038.498-.04v.002zm-596.797 43.501c-2.204 29.76 1.002 58.524 9.421 85.486 3.909 12.629 8.921 24.659 14.837 35.688 32.482 61.152 94.711 97.409 141.146 117.024 31.035 13.115 64.17 22.925 98.605 29.231l.09-.492-264.099-266.937z" fill="url(#paint13_linear)" stroke="#DFECEF"/><path opacity=".556" d="M223.29 617.188v.001c-1.597 28.538 2.096 56.374 10.974 82.611 4.091 12.073 9.179 23.646 15.064 34.319 32.419 58.653 92.794 93.897 137.859 113.182h.001l-.197.46L223.29 617.188zm0 0c1.397-25.841 8.284-57.895 19.875-92.87 6.245-18.834 18.261-51.557 36.332-86.188 8.082-15.489 17.372-31.353 27.895-46.524-10.511 15.163-19.784 31.012-27.845 46.474-18.041 34.606-30.026 67.308-36.231 86.124l.475.157-.475-.157c-11.508 34.925-18.421 66.97-19.924 92.828v.001c-1.604 28.562 2.104 56.326 10.925 82.587v.001c4.109 12.126 9.12 23.653 15.036 34.282 32.481 58.647 92.907 93.903 137.841 113.118 29.934 12.814 62.168 22.624 95.5 29.23 32.733 6.507 59.485 8.314 84.347 5.807 39.901-4.01 80.484-20.449 117.346-47.494l-.296-.403.296.403c81.234-59.699 128.018-160.766 119.302-257.348-4.708-54.291-24.841-109.669-58.081-160.13-20.415-31.049-43.801-56.904-69.79-77.129 26.029 20.209 49.472 46.171 69.955 77.279 33.26 50.539 53.428 105.86 58.12 160.168v.002c8.783 96.618-38.033 197.751-119.298 257.452l-.001.001c-36.837 27.153-77.453 43.514-117.352 47.504L223.29 617.188zm283.101-348.527c-15.143 0-29.662 2.194-43.519 5.993 15.535-4.271 31.897-6.53 49.034-5.954-1.077.014-2.136-.001-3.196-.017-.77-.011-1.541-.022-2.319-.022z" fill="url(#paint14_linear)" stroke="#DFECEF"/><path opacity=".593" d="M399.691 843.161l.199-.458c28.967 12.585 60.035 22.376 92.505 29.269 24.377 5.195 44.741 7.689 63.496 7.689 6.146 0 12.188-.295 17.932-.983-23.901 2.074-49.1-.041-81.436-6.928-32.431-6.906-63.562-16.716-92.495-29.23l.199-.459-.199.459c-43.433-18.814-102.154-53.069-134.534-109.209-5.915-10.225-11.127-21.351-15.337-32.978-9.322-25.561-13.532-52.326-12.43-79.691.903-24.964 7.417-56.013 18.826-89.94v-.001c6.155-18.215 17.965-49.868 35.745-83.213 17.777-33.339 41.539-68.403 71.609-93.411l.001-.001c40.506-33.605 89.627-67.715 148.519-67.715 2.809 0 5.72.1 8.432.301 41.435 2.309 85.526 21.27 142.754 61.189 30.058 20.841 57.1 49.088 80.329 83.932 32.54 48.559 52.473 101.437 57.483 152.93M399.691 843.161c29 12.6 60.1 22.4 92.6 29.3 24.4 5.2 44.8 7.7 63.6 7.7 6.2 0 12.3-.3 18.1-1 38.7-3.4 78.2-19.4 114.2-46 37.7-27.9 68.5-65.9 88.9-109.7 20.9-44.9 29.5-92.9 24.8-139-5-51.6-24.9-104.6-57.5-153.3-23.3-35-50.4-63.3-80.5-84.2-57.4-40.1-101.5-59-143.1-61.3m-121.1 557.5l.199-.458c-43.567-18.886-102.246-53.131-134.665-109.29m134.466 109.748L265.225 733.413m536.064-148.7l-.498.048.497-.05.001.002zm0 0c2.656 26.144 1.024 52.661-4.447 78.561m0 0c-4.345 20.303-11.107 40.433-20.204 59.976-19.145 41.105-47.463 77.09-82.049 104.391 35.513-28.013 63.58-64.266 82.184-104.328 8.96-19.295 15.724-39.472 20.069-60.039zm0 0c5.62-26.263 7.197-52.816 4.551-78.762v-.003c-4.991-51.507-24.857-104.429-57.418-153.07v-.001c-23.27-34.955-50.328-63.207-80.369-84.066l-.002-.001c-57.369-40.079-101.377-58.918-142.841-61.211l.028-.499m0 0l-.028.499c-62.692-3.488-114.559 32.191-157.152 67.585-30.03 25.042-53.793 60.104-71.591 93.489-17.795 33.38-29.61 65.052-35.755 83.286-11.391 33.972-17.877 65.124-18.875 90.061l-.499-.02.499.02c-1.097 27.336 3.093 54.27 12.47 79.808 4.29 11.674 9.479 22.748 15.365 33.024m255.566-447.752L265.225 733.413m385.77 122.276c-24.657 12.583-50.186 20.373-75.392 22.821 25.222-2.509 50.752-10.267 75.392-22.821zm36.898-22.93l-.005.004.005-.004z" fill="url(#paint15_linear)" stroke="#DFECEF"/><path opacity=".63" d="M799.188 591.908c-5.31-48.592-24.944-99.068-56.783-145.825-22.428-33.242-48.368-60.388-76.823-80.627-55.928-40.12-97.02-58.483-137.157-61.192h-.004c-3.31-.201-6.62-.301-9.83-.301-55.287 0-103.207 32.005-143.111 63.608h0c-29.674 23.609-53.113 57.199-70.628 89.264-17.518 32.071-29.129 62.649-35.134 80.266-11.21 32.829-17.426 62.983-17.827 87.053-.501 26.167 4.211 52.032 14.035 76.892v.001c4.409 11.124 9.621 21.749 15.536 31.574h.001c32.38 53.533 89.295 86.785 131.226 105.299l.002.001c27.93 12.213 57.96 22.022 89.388 29.229 21.312 4.903 49.673 10.217 79.051 7.911 37.309-2.908 75.497-18.251 110.46-44.297 16.276-12.127 31.009-26.002 44.005-41.2-13.097 15.388-27.822 29.237-43.903 41.197-35.037 26.054-73.249 41.412-110.54 44.303l-.011.001-.011.001c-4.874.597-9.753.797-14.539.797-24.043 0-46.7-4.39-64.589-8.488l-.111.488.111-.488c-31.471-7.193-61.541-16.984-89.409-29.27h-.001c-42.068-18.486-98.953-51.734-131.373-105.301l-.001-.001c-5.984-9.874-11.172-20.448-15.562-31.623v-.001c-9.876-24.94-14.564-50.773-13.965-76.905v-.001c.498-24.132 6.683-54.278 17.873-87.149h0c5.995-17.634 17.609-48.255 35.153-80.372 17.547-32.122 41.009-65.707 70.685-89.298 42.397-33.697 93.562-67.478 152.954-63.393 40.164 2.791 81.172 21.028 137.244 61.208l.001.001c28.545 20.361 54.405 47.416 76.876 80.673v.001c31.862 46.843 51.427 97.266 56.817 145.874v.001c2.918 25.734 1.467 52.189-4.213 78.365 5.54-25.8 7.07-52.247 4.107-78.276zm0 0l-.497.055.497-.057v.002z" fill="url(#paint16_linear)" stroke="#DFECEF"/><path opacity=".667" d="M511.71 862.776h.001c18.088 4.497 41.241 9.285 65.28 9.285 3.789 0 7.479-.099 11.369-.299m-76.65-8.986l76.681 9.485m-76.681-9.485c-30.474-7.494-59.545-17.285-86.315-29.271h0c-58.24-25.973-102.449-61.018-128.082-101.412l-.001-.001c-5.983-9.374-11.271-19.55-15.862-30.228-10.274-24.141-15.459-49.074-15.459-74.003 0-23.325 5.883-52.467 16.872-84.236v-.001c5.895-17.082 17.308-46.653 34.577-77.493 17.271-30.846 40.38-62.93 69.652-85.071 44.298-33.498 92.863-63.784 148.858-59.2h.001c48.144 3.887 93.542 33.103 131.743 61.304l.002.001c27.048 19.762 51.71 45.819 73.483 77.38 31.063 45.047 50.527 93.071 56.115 138.777l.001.003c5.387 42.1-1.795 86.307-20.66 127.93-18.366 40.525-46.413 75.658-81.144 101.806M511.71 862.776l184.081-33.315M588.36 871.762h.005l.026.499m-.031-.499h-.002l.033.499m-.031-.499c35.987-2.393 73.095-17.149 107.131-42.701m-107.1 43.2c36.1-2.4 73.3-17.2 107.4-42.8m-.3-.4l-.001.001.301.399m-.3-.4l.3.4m-28.305-446.203c-37.998-27.999-83.5-57.282-131.655-61.195l-.04.498.04-.498c-3.708-.301-7.422-.502-11.14-.502-51.281 0-96.299 28.499-137.501 59.601l-.001.001c-29.278 22.159-52.368 54.275-69.609 85.079-17.245 30.809-28.656 60.339-34.562 77.355l.473.164-.473-.164c-11.011 31.732-16.827 60.89-16.827 84.264 0 24.971 5.215 49.838 15.54 73.997 4.51 10.624 9.823 20.747 15.837 30.171 25.568 40.407 69.859 75.462 128.02 101.289 26.829 11.913 55.857 21.722 86.283 29.229h.001c20.811 5.103 48.372 10.718 76.451 8.913h.001c36.013-2.407 73.003-17.151 107.067-42.699h0c71.333-53.6 112.22-145.772 101.596-229.463-5.612-45.693-25.048-93.667-56.084-138.72-21.727-31.539-46.365-57.582-73.417-77.32zm0 0l.001.001-.296.402.295-.404v.001z" fill="url(#paint17_linear)" stroke="#DFECEF"/><path opacity=".704" d="M297.345 702.652v-.001c-10.874-23.544-16.655-47.475-17.054-71.199h0c-.399-22.621 5.083-50.759 15.871-81.425 4.545-12.835 15.359-41.08 32.464-71.433 17.11-30.361 40.492-62.788 70.156-84.027h0c40.985-29.389 89.31-60.251 144.561-55.018l-.558-.025c-4.087-.187-7.946-.363-11.894-.363-50.079 0-94.298 28.498-131.991 55.493-29.686 21.262-53.079 53.709-70.17 84.011-17.094 30.309-27.905 58.513-32.411 71.33-10.811 30.633-16.33 58.795-15.828 81.376.502 23.775 6.22 47.642 17.046 71.099l.001.002c4.71 10.121 10.122 19.843 16.036 28.765l.001.001c25.866 38.9 67.852 71.652 124.71 97.378v.001c25.728 11.612 53.754 21.421 83.278 29.227l.128-.483-.128.483c21.611 5.703 47.273 11.32 73.854 9.916h.001c43.941-2.408 80.636-23.671 103.675-41.1 67.227-50.838 105.531-136.767 96.52-215.351 4.538 38.763-2.12 79.309-19.279 117.748l.457.204-.457-.204c-17.366 38.925-44.114 72.757-77.345 97.905h0c-23.062 17.472-59.766 38.807-103.724 41.099l-.011.001c-2.687.199-5.574.299-8.363.299-23.533 0-46.082-5.086-65.372-10.184-29.475-7.793-57.55-17.684-83.323-29.272-56.942-25.774-98.856-58.522-124.789-97.421-5.985-8.978-11.372-18.655-16.062-28.832z" fill="url(#paint18_linear)" stroke="#DFECEF"/><path opacity=".741" d="M531.327 853.58h.001c20.391 5.798 42.235 11.081 65.263 11.081.931 0 1.887-.024 2.863-.049l.037-.001c.983-.025 1.986-.05 2.99-.05 42.349-1.697 77.946-22.428 100.306-39.497l.001-.001c65.867-50.199 102.078-135.022 90.109-211.124v-.002c-6.186-40.505-24.647-82.432-54.812-124.485h-.001c-20.176-28.167-42.544-52.03-66.501-70.697l-.001-.001c-21.201-16.661-43.456-32.83-66.812-44.481 23.316 11.665 45.516 27.814 66.628 44.394 24.043 18.733 46.376 42.47 66.5 70.704 30.133 42.046 48.572 83.918 54.787 124.413 11.931 75.997-24.259 160.774-89.991 210.974v.001c-22.337 17.028-57.836 37.796-100.183 39.502-25.283 1.003-49.146-4.616-71.257-10.919 0 0 0 0 0 0l.073.238zm0 0c-28.577-8.093-55.553-17.985-80.228-29.274l80.228 29.274z" fill="url(#paint19_linear)" stroke="#DFECEF"/><path opacity=".778" d="M673.891 436.062c-40.8-33.3-76-56.5-115.2-61.5-48.6-6.2-92.3 18.5-136.6 46.6m251.8 14.9l-351.5 126.6c8.8-23.9 42.1-104.9 99.7-141.5m251.8 14.9c22.5 18.2 43.7 40.9 63.1 67.5l-63.1-67.5zm-251.8-14.9l.268.423m-.268-.423l.268.422v.001m0 0c42.529-26.977 84.357-50.713 130.439-47.125m-130.439 47.125c-28.705 18.239-51.381 47.563-67.989 75.346-16.604 27.777-27.116 53.971-31.51 65.904v.001c-10.485 28.359-15.264 54.587-13.87 75.693v.001c1.394 21.417 8.169 43.447 20.14 65.494l.001.001a212.965 212.965 0 0016.561 26.039l.001.001c25.736 34.814 65.46 64.968 118.209 89.644m88.896-445.249l-89.107 445.702m89.107-445.702a156.031 156.031 0 00-9.207-.298c-42.565 0-81.68 22.486-121.168 47.478h0c-28.796 18.261-51.469 47.612-68.024 75.341-16.559 27.736-27.021 53.892-31.378 65.809m229.777-188.33c1.898.148 3.805.342 5.718.584l.015.002.096.012.023-.179m-5.852-.419c1.908.113 3.821.251 5.733.404l.011.001.011.001.097.013m-5.852-.419l120.708 61.714c-40.67-33.175-75.742-56.35-114.856-61.295m-94.748 444.83l-.211.453m.211-.453l.001.001-.212.452m.211-.453c23.576 10.989 49.455 20.781 77.135 29.275l-.146.478m-77.2-29.3c23.6 11 49.5 20.8 77.2 29.3m0 0l.147-.478c20.49 6.298 42.531 11.978 65.153 11.978h.01c1.084 0 2.291 0 3.406.1m-68.716-11.6l68.716 11.6m0 0c40.735-1.005 75.121-21.128 96.879-37.896l.305.396-.305-.396c62.968-48.498 96.777-129.719 84.212-201.918v-.002c-2.298-13.536-6.122-27.321-11.454-41.3 5.264 13.849 9.049 27.509 11.339 40.931 12.535 72.301-21.255 153.38-84.187 201.782-21.639 16.729-56.04 36.799-96.791 37.903-23.787.703-47.053-5.319-68.561-11.922-27.619-8.406-53.541-18.214-77.065-29.225l.212-.453-.212.453c-52.551-24.623-92.327-54.769-118.09-89.555a216.549 216.549 0 01-16.538-26.06c-12.029-21.954-18.754-44.023-20.159-65.405-1.406-21.193 3.415-47.366 13.829-75.605m286.586 298.272l-286.116-298.1m-.47-.172l.001-.001.469.173m-.47-.172v.001l.47.171m0 0c8.7-23.8 41.8-104.5 99.2-140.9 39.5-25 78.5-47.4 120.9-47.4 4.9 0 9.9.3 14.9.7 39 4.9 74 28 114.7 61.2M558.65 374.879l-.022.179c38.991 4.974 74.05 28.029 114.771 61.248l-.208.256m0 0l.208-.255-132.208 411.855c21.5 6.6 44.7 12.6 68.4 11.9 40.6-1.1 74.9-21.1 96.5-37.8 62.8-48.3 96.5-129.2 84-201.3-6.4-37.5-24.5-76.9-54-117.1m-62.9-67.3c22.4 18.2 43.6 40.8 62.9 67.3m0 0l.325-.238.171.233-.17-.232-.326.237z" fill="url(#paint20_linear)" stroke="#DFECEF"/><path opacity=".815" d="M550.847 844.287h0c19.098 6.299 41.431 12.975 64.644 12.975h.01c.386 0 .811 0 1.336.099 39.219-.414 72.393-19.93 93.447-36.294 60.169-46.798 91.676-124.216 78.416-192.61l-.001-.003c-6.581-35.102-24.038-71.132-53.408-110.192l-.001-.001c-18.58-24.873-38.654-46.444-59.521-64.017l-.001-.001c-19.489-16.517-39.89-32.961-61.886-44.844 21.972 11.907 42.33 28.346 61.732 44.781 20.833 17.628 40.858 39.256 59.477 64.082 29.229 38.939 46.773 75.009 53.391 110.107 13.239 68.405-18.253 145.786-78.284 192.487l-.001.001c-21.035 16.327-54.24 35.902-93.398 36.305-23.693.401-46.465-6.526-65.964-12.925l-.002-.001c-27.115-9.005-51.335-18.512-74.057-29.323-50.547-24.022-89.217-52.865-114.879-85.643 0 0 0 0 0 0l.394-.308c-6.1-7.7-11.7-16-16.8-24.6l205.356 139.925zm0 0c-27.083-8.895-51.363-18.487-74.041-29.277l-.215.452 74.256 28.825z" fill="url(#paint21_linear)" stroke="#DFECEF"/><path opacity=".852" d="M733.587 532.757c-17.816-23.221-36.638-43.645-56.065-60.669-30.986-27.488-64.584-54.99-103.743-61.418-5.737-1.107-11.467-1.508-17.188-1.508-38.751 0-75.466 20.175-108.34 38.261l-.001.001-2.397 1.298-.002.002c-27.757 15.208-49.687 41.464-65.744 66.644-16.062 25.188-26.276 49.346-30.582 60.413h0c-10.019 25.847-14.143 49.932-11.831 69.838 2.211 19.394 9.846 38.966 23.176 59.713 5.212 8.119 11.025 15.936 17.137 23.25 25.859 31.171 62.423 57.909 111.565 81.73 21.42 10.41 44.638 19.916 70.95 29.321h.001c19.702 7.001 40.972 13.828 63.363 14.029-22.404-.101-43.53-6.972-63.429-13.972-26.285-9.294-49.568-18.887-70.948-29.278h0c-49.257-23.879-85.692-50.64-111.634-81.77-6.089-7.387-11.876-15.169-17.062-23.348l-.002-.003c-13.369-20.752-21.034-40.38-23.223-59.785l-.001-.001c-2.287-19.894 1.789-44.01 11.87-69.962h0c4.293-11.083 14.504-35.25 30.593-60.449 16.092-25.207 38.037-51.401 65.78-66.593h.001l2.398-1.299.003-.002c37.835-20.819 80.578-44.212 125.578-36.845v.001c39.138 6.373 72.737 33.77 103.848 61.479l.002.002c19.373 17.076 38.251 37.552 56.034 60.729l.001.001c29.172 37.865 45.927 70.597 52.807 103.099v.001c13.855 64.59-15.251 138.304-72.52 183.401-27.43 21.484-57.874 33.632-86.097 34.539 28.284-.913 58.647-13.162 86.015-34.652h0c57.23-45.002 86.324-118.587 72.48-183.196-6.821-32.499-23.666-65.267-52.793-103.002zm0 0v.001l-.396.304.396-.305s0 0 0 0z" fill="url(#paint22_linear)" stroke="#DFECEF"/><path opacity=".889" d="M393.965 728.03l-.002-.002c-6.185-6.883-11.973-14.267-17.363-21.953v-.001c-14.068-19.955-22.128-38.581-24.714-56.882v-.001c-2.784-19.287.99-42.496 10.869-67.042v-.002c4.243-10.632 14.353-33.798 30.203-57.734 15.854-23.943 37.42-48.611 64.557-62.304l.001-.001 5.998-2.999.002-.001.091-.045c37.607-19.004 76.321-38.567 117.693-30.909l.091-.492-.091.492c37.138 6.87 67.639 32.864 98.249 61.473l.002.002c17.844 16.547 35.492 35.784 52.446 57.314-16.988-21.474-34.675-40.756-52.466-57.248-30.487-28.388-60.986-54.594-98.148-61.425-6.329-1.205-12.56-1.808-18.692-1.808-34.541 0-67.349 16.566-99.025 32.653l-.002.001-5.997 2.999h-.001c-27.213 13.707-48.771 38.415-64.58 62.309-15.813 23.901-25.902 47.035-30.159 57.652h0c-9.822 24.554-13.547 47.744-10.831 66.956v.001c2.614 18.298 10.754 36.972 24.686 56.816 5.312 7.617 11.223 15.032 17.334 21.944l.001.001c25.755 29.062 61.214 54.497 108.252 77.816h.001c20.116 9.908 42.33 19.514 67.942 29.319h0c19.097 7.299 39.571 14.53 60.766 15.033 28.246.703 58.957-11.156 86.524-33.109a190.464 190.464 0 0023.485-22.083c-7.225 8.15-15.105 15.644-23.507 22.3l-.001.001c-26.732 21.346-56.625 32.991-84.288 32.991H630.996c-21.102-.499-41.526-7.667-60.726-14.967-25.589-9.796-47.775-19.39-67.959-29.282-47.161-23.281-82.601-48.745-108.346-77.783zm390.212-85.085c-9.011-38.144-32.503-71.166-51.987-95.758 19.575 24.579 43.055 57.663 52.014 95.789l.001.002a142.842 142.842 0 012.936 16.65 141.754 141.754 0 00-2.964-16.683z" fill="#FF485A" stroke="#DFECEF"/><path opacity=".926" d="M410.328 727.193c25.551 26.954 59.904 51.085 105.038 73.802 18.814 9.507 39.426 18.813 64.834 29.316h.001c19.196 7.899 38.27 15.133 58.067 16.037h0c27.053 1.207 56.569-10.055 83.137-31.51 50.73-40.805 75.727-108.499 60.769-164.717-8.929-33.812-29.991-62.683-51.396-88.689-16.311-19.913-32.823-38.026-49.137-54.04-28.587-28.187-57.285-54.199-92.65-61.433-6.73-1.406-13.264-2.11-19.8-2.11-31.129 0-61.332 13.956-90.508 27.445-1.552.701-3.104 1.427-4.652 2.151l-.002.001c-1.551.725-3.098 1.449-4.644 2.147l-.002.001c-26.569 12.154-47.757 35.314-63.341 57.934-15.59 22.626-25.606 44.761-29.813 54.93-9.625 23.258-13.052 45.456-9.831 64.175v.001c3.018 17.504 11.365 34.678 26.297 54.02v.001c5.51 7.112 11.421 14.025 17.633 20.538zm0 0l.363-.344-.362.345-.001-.001zM638.232 846.45l-.01-.001h-.011c-19.9-.796-38.824-8.06-58.129-16.062h0c-25.392-10.497-45.98-19.792-64.867-29.285-45.165-22.783-79.513-46.951-105.061-73.897l-.001-.001c-6.188-6.488-12.176-13.474-17.564-20.558l-.003-.003c-14.967-19.358-23.32-36.583-26.302-54.078-3.18-18.682.193-40.885 9.869-64.225 4.243-10.183 14.277-32.348 29.899-55.007 15.628-22.668 36.815-45.784 63.346-57.929 3.097-1.399 6.201-2.801 9.306-4.303 35.534-16.416 72.177-33.324 110.387-25.562 35.335 7.266 63.937 33.154 92.749 61.466l.001.001c16.286 15.986 32.874 34.172 49.163 54.06h0c21.495 26.194 42.533 55.022 51.403 88.81v.001c7.571 28.587 5.383 59.779-6.383 90.292-11.168 28.818-30.515 55.246-54.448 74.591l.315.389-.315-.389c-25.534 20.647-53.526 31.789-79.585 31.789-1.305 0-2.583-.001-3.759-.099z" fill="url(#paint23_linear)" stroke="#DFECEF"/><path opacity=".963" d="M589.996 825.693l-.002-.001c-17.297-7.698-39.887-17.994-61.774-29.287-43.771-22.685-76.125-44.858-101.778-69.912-6.291-6.191-12.281-12.58-17.87-19.167l-.381.323.381-.323c-15.668-18.463-24.513-34.687-27.791-51.174v-.002c-4.67-22.953 2.185-46.038 8.868-61.3l.001-.003c4.192-9.731 14.175-30.895 29.584-52.281 15.414-21.392 36.222-42.956 62.047-53.554l.001-.001c2.051-.85 4.077-1.701 6.102-2.551h.001c2.025-.85 4.049-1.699 6.097-2.549l.003-.001c33.533-14.114 68.078-28.531 103.194-20.473 33.634 7.761 59.339 32.346 87.15 61.557h0c14.793 15.493 30.187 32.586 45.681 50.779l.001.001c20.701 24.202 41.534 50.43 50.8 81.618h.001c15.633 52.375-6.967 116.375-54.937 155.569-23.934 19.447-50.226 29.988-74.584 29.988-1.697 0-3.305-.089-5.01-.184l-.258-.015h-.001c-20.196-1.293-39.715-9.952-55.526-17.057zM380.901 656.148h0c3.322 16.512 12.177 32.688 27.808 51.125h.001c5.608 6.61 11.52 13.022 17.833 19.135 25.646 25.045 57.99 47.271 101.718 69.885l.001.001c21.912 11.306 44.523 21.611 61.724 29.312h.001l.07.031c15.674 6.988 35.227 15.706 55.402 17.011h.001c25.856 1.61 54.176-8.954 79.647-29.911 47.93-39.106 70.529-103.006 54.963-155.43-9.233-31.213-30.202-57.485-50.799-81.583-15.504-18.205-30.811-35.312-45.619-50.72-27.687-28.986-53.382-53.803-87.048-61.542-6.941-1.609-13.879-2.313-20.813-2.313-27.919 0-55.514 11.548-82.294 22.839-4.098 1.699-8.198 3.4-12.199 5.1-25.874 10.602-46.665 32.213-62.026 53.557-15.366 21.352-25.332 42.487-29.54 52.205-6.616 15.238-13.461 38.251-8.831 61.298z" fill="#FF485A" stroke="#DFECEF"/><path d="M652.436 839.251h-.003c-18.688-1.574-36.519-10.156-52.406-17.803l-.518-.249-.001-.001-.11-.052c-59.489-28.795-126.747-61.35-175.142-113.039l-.365.342.365-.342c-10.293-10.992-24.512-28.011-29.379-48.374v-.001c-5.362-22.341 1.288-44.118 7.868-58.475h.001c4.242-9.283 14.224-29.472 29.431-49.594 15.213-20.13 35.616-40.141 60.683-49.143l.003-.002c2.45-.9 4.95-1.824 7.449-2.749l.002-.001c2.5-.925 5-1.85 7.449-2.75l.004-.001c31.635-11.913 64.18-24.138 96.4-15.884h0c34.626 8.856 60.628 38.023 81.55 61.548v.001l42.2 47.4h.001c19.012 21.314 40.436 45.439 50.098 74.525h.001c16.223 48.57-3.974 108.763-49.145 146.357-22.435 18.546-47.026 28.585-69.881 28.585-2.185 0-4.37-.099-6.555-.298zm-52.863-18.152h0l52.918 17.55-.043.498s0 0 0 0c24.666 2.114 51.792-7.955 76.263-28.314 45.028-37.406 65.331-97.511 49.054-146.142-9.564-28.793-30.886-52.821-49.667-73.986l-.433-.488h-.001l-42.2-47.4c-20.777-23.375-46.775-52.607-81.448-61.552h-.001c-32.179-8.246-64.834 4.029-96.299 15.915-2.449.9-4.948 1.825-7.446 2.749l-.003.001c-2.499.925-4.998 1.85-7.447 2.749-25.082 9.048-45.479 29.086-60.641 49.144-15.167 20.064-25.135 40.2-29.343 49.519-6.52 14.244-13.169 36.066-7.832 58.423 3.728 15.717 12.79 30.592 29.321 48.225 48.063 51.446 114.995 83.897 174.097 112.551l1.151.558z" fill="#FF485A" stroke="#DFECEF"/><defs><linearGradient id="paint0_linear" x1="-9.266" y1="560.375" x2="834.63" y2="397.891" gradientUnits="userSpaceOnUse"><stop stop-color="#FFF154"/><stop offset=".085" stop-color="#CFC383"/><stop offset=".178" stop-color="#A298AF"/><stop offset=".267" stop-color="#7E76D2"/><stop offset=".351" stop-color="#655EEB"/><stop offset=".426" stop-color="#554FFA"/><stop offset=".487" stop-color="#504AFF"/><stop offset=".714" stop-color="#8C3EA5"/><stop offset="1" stop-color="#DB2E2E"/></linearGradient><linearGradient id="paint1_linear" x1="8.61" y1="555.753" x2="832.565" y2="415.297" gradientUnits="userSpaceOnUse"><stop stop-color="#FFF154"/><stop offset=".085" stop-color="#CFC383"/><stop offset=".178" stop-color="#A298AF"/><stop offset=".267" stop-color="#7E76D2"/><stop offset=".351" stop-color="#655EEB"/><stop offset=".426" stop-color="#554FFA"/><stop offset=".487" stop-color="#504AFF"/><stop offset=".714" stop-color="#8C3EA5"/><stop offset="1" stop-color="#DB2E2E"/></linearGradient><linearGradient id="paint2_linear" x1="26.543" y1="551.547" x2="830.495" y2="432.374" gradientUnits="userSpaceOnUse"><stop stop-color="#FFF154"/><stop offset=".085" stop-color="#CFC383"/><stop offset=".178" stop-color="#A298AF"/><stop offset=".267" stop-color="#7E76D2"/><stop offset=".351" stop-color="#655EEB"/><stop offset=".426" stop-color="#554FFA"/><stop offset=".487" stop-color="#504AFF"/><stop offset=".714" stop-color="#8C3EA5"/><stop offset="1" stop-color="#DB2E2E"/></linearGradient><linearGradient id="paint3_linear" x1="44.544" y1="547.756" x2="828.461" y2="449.258" gradientUnits="userSpaceOnUse"><stop stop-color="#FFF154"/><stop offset=".085" stop-color="#CFC383"/><stop offset=".178" stop-color="#A298AF"/><stop offset=".267" stop-color="#7E76D2"/><stop offset=".351" stop-color="#655EEB"/><stop offset=".426" stop-color="#554FFA"/><stop offset=".487" stop-color="#504AFF"/><stop offset=".714" stop-color="#8C3EA5"/><stop offset="1" stop-color="#DB2E2E"/></linearGradient><linearGradient id="paint4_linear" x1="62.536" y1="544.384" x2="826.44" y2="465.78" gradientUnits="userSpaceOnUse"><stop stop-color="#FFF154"/><stop offset=".085" stop-color="#CFC383"/><stop offset=".178" stop-color="#A298AF"/><stop offset=".267" stop-color="#7E76D2"/><stop offset=".351" stop-color="#655EEB"/><stop offset=".426" stop-color="#554FFA"/><stop offset=".487" stop-color="#504AFF"/><stop offset=".714" stop-color="#8C3EA5"/><stop offset="1" stop-color="#DB2E2E"/></linearGradient><linearGradient id="paint5_linear" x1="80.504" y1="541.493" x2="824.451" y2="482.136" gradientUnits="userSpaceOnUse"><stop stop-color="#FFF154"/><stop offset=".085" stop-color="#CFC383"/><stop offset=".178" stop-color="#A298AF"/><stop offset=".267" stop-color="#7E76D2"/><stop offset=".351" stop-color="#655EEB"/><stop offset=".426" stop-color="#554FFA"/><stop offset=".487" stop-color="#504AFF"/><stop offset=".714" stop-color="#8C3EA5"/><stop offset="1" stop-color="#DB2E2E"/></linearGradient><linearGradient id="paint6_linear" x1="98.376" y1="538.991" x2="822.473" y2="498.15" gradientUnits="userSpaceOnUse"><stop stop-color="#FFF154"/><stop offset=".085" stop-color="#CFC383"/><stop offset=".178" stop-color="#A298AF"/><stop offset=".267" stop-color="#7E76D2"/><stop offset=".351" stop-color="#655EEB"/><stop offset=".426" stop-color="#554FFA"/><stop offset=".487" stop-color="#504AFF"/><stop offset=".714" stop-color="#8C3EA5"/><stop offset="1" stop-color="#DB2E2E"/></linearGradient><linearGradient id="paint7_linear" x1="116.091" y1="536.937" x2="820.502" y2="513.803" gradientUnits="userSpaceOnUse"><stop stop-color="#FFF154"/><stop offset=".085" stop-color="#CFC383"/><stop offset=".178" stop-color="#A298AF"/><stop offset=".267" stop-color="#7E76D2"/><stop offset=".351" stop-color="#655EEB"/><stop offset=".426" stop-color="#554FFA"/><stop offset=".487" stop-color="#504AFF"/><stop offset=".714" stop-color="#8C3EA5"/><stop offset="1" stop-color="#DB2E2E"/></linearGradient><linearGradient id="paint8_linear" x1="133.627" y1="535.274" x2="818.535" y2="529.177" gradientUnits="userSpaceOnUse"><stop stop-color="#FFF154"/><stop offset=".085" stop-color="#CFC383"/><stop offset=".178" stop-color="#A298AF"/><stop offset=".267" stop-color="#7E76D2"/><stop offset=".351" stop-color="#655EEB"/><stop offset=".426" stop-color="#554FFA"/><stop offset=".487" stop-color="#504AFF"/><stop offset=".714" stop-color="#8C3EA5"/><stop offset="1" stop-color="#DB2E2E"/></linearGradient><linearGradient id="paint9_linear" x1="150.926" y1="534.014" x2="816.525" y2="544.147" gradientUnits="userSpaceOnUse"><stop stop-color="#FFF154"/><stop offset=".085" stop-color="#CFC383"/><stop offset=".178" stop-color="#A298AF"/><stop offset=".267" stop-color="#7E76D2"/><stop offset=".351" stop-color="#655EEB"/><stop offset=".426" stop-color="#554FFA"/><stop offset=".487" stop-color="#504AFF"/><stop offset=".714" stop-color="#8C3EA5"/><stop offset="1" stop-color="#DB2E2E"/></linearGradient><linearGradient id="paint10_linear" x1="167.981" y1="533.165" x2="814.485" y2="558.857" gradientUnits="userSpaceOnUse"><stop stop-color="#FFF154"/><stop offset=".085" stop-color="#CFC383"/><stop offset=".178" stop-color="#A298AF"/><stop offset=".267" stop-color="#7E76D2"/><stop offset=".351" stop-color="#655EEB"/><stop offset=".426" stop-color="#554FFA"/><stop offset=".487" stop-color="#504AFF"/><stop offset=".714" stop-color="#8C3EA5"/><stop offset="1" stop-color="#DB2E2E"/></linearGradient><linearGradient id="paint11_linear" x1="184.762" y1="532.653" x2="812.423" y2="573.107" gradientUnits="userSpaceOnUse"><stop stop-color="#FFF154"/><stop offset=".085" stop-color="#CFC383"/><stop offset=".178" stop-color="#A298AF"/><stop offset=".267" stop-color="#7E76D2"/><stop offset=".351" stop-color="#655EEB"/><stop offset=".426" stop-color="#554FFA"/><stop offset=".487" stop-color="#504AFF"/><stop offset=".714" stop-color="#8C3EA5"/><stop offset="1" stop-color="#DB2E2E"/></linearGradient><linearGradient id="paint12_linear" x1="201.292" y1="532.504" x2="810.34" y2="587.053" gradientUnits="userSpaceOnUse"><stop stop-color="#FFF154"/><stop offset=".085" stop-color="#CFC383"/><stop offset=".178" stop-color="#A298AF"/><stop offset=".267" stop-color="#7E76D2"/><stop offset=".351" stop-color="#655EEB"/><stop offset=".426" stop-color="#554FFA"/><stop offset=".487" stop-color="#504AFF"/><stop offset=".714" stop-color="#8C3EA5"/><stop offset="1" stop-color="#DB2E2E"/></linearGradient><linearGradient id="paint13_linear" x1="217.611" y1="532.661" x2="808.228" y2="600.566" gradientUnits="userSpaceOnUse"><stop stop-color="#FFF154"/><stop offset=".085" stop-color="#CFC383"/><stop offset=".178" stop-color="#A298AF"/><stop offset=".267" stop-color="#7E76D2"/><stop offset=".351" stop-color="#655EEB"/><stop offset=".426" stop-color="#554FFA"/><stop offset=".487" stop-color="#504AFF"/><stop offset=".714" stop-color="#8C3EA5"/><stop offset="1" stop-color="#DB2E2E"/></linearGradient><linearGradient id="paint14_linear" x1="233.727" y1="533.155" x2="806.127" y2="613.635" gradientUnits="userSpaceOnUse"><stop stop-color="#FFF154"/><stop offset=".085" stop-color="#CFC383"/><stop offset=".178" stop-color="#A298AF"/><stop offset=".267" stop-color="#7E76D2"/><stop offset=".351" stop-color="#655EEB"/><stop offset=".426" stop-color="#554FFA"/><stop offset=".487" stop-color="#504AFF"/><stop offset=".714" stop-color="#8C3EA5"/><stop offset="1" stop-color="#DB2E2E"/></linearGradient><linearGradient id="paint15_linear" x1="249.694" y1="534.002" x2="803.967" y2="626.372" gradientUnits="userSpaceOnUse"><stop stop-color="#FFF154"/><stop offset=".085" stop-color="#CFC383"/><stop offset=".178" stop-color="#A298AF"/><stop offset=".267" stop-color="#7E76D2"/><stop offset=".351" stop-color="#655EEB"/><stop offset=".426" stop-color="#554FFA"/><stop offset=".487" stop-color="#504AFF"/><stop offset=".714" stop-color="#8C3EA5"/><stop offset="1" stop-color="#DB2E2E"/></linearGradient><linearGradient id="paint16_linear" x1="265.524" y1="535.115" x2="801.827" y2="638.578" gradientUnits="userSpaceOnUse"><stop stop-color="#FFF154"/><stop offset=".085" stop-color="#CFC383"/><stop offset=".178" stop-color="#A298AF"/><stop offset=".267" stop-color="#7E76D2"/><stop offset=".351" stop-color="#655EEB"/><stop offset=".426" stop-color="#554FFA"/><stop offset=".487" stop-color="#504AFF"/><stop offset=".714" stop-color="#8C3EA5"/><stop offset="1" stop-color="#DB2E2E"/></linearGradient><linearGradient id="paint17_linear" x1="281.231" y1="536.573" x2="799.667" y2="650.433" gradientUnits="userSpaceOnUse"><stop stop-color="#FFF154"/><stop offset=".085" stop-color="#CFC383"/><stop offset=".178" stop-color="#A298AF"/><stop offset=".267" stop-color="#7E76D2"/><stop offset=".351" stop-color="#655EEB"/><stop offset=".426" stop-color="#554FFA"/><stop offset=".487" stop-color="#504AFF"/><stop offset=".714" stop-color="#8C3EA5"/><stop offset="1" stop-color="#DB2E2E"/></linearGradient><linearGradient id="paint18_linear" x1="296.842" y1="538.289" x2="797.511" y2="661.785" gradientUnits="userSpaceOnUse"><stop stop-color="#FFF154"/><stop offset=".085" stop-color="#CFC383"/><stop offset=".178" stop-color="#A298AF"/><stop offset=".267" stop-color="#7E76D2"/><stop offset=".351" stop-color="#655EEB"/><stop offset=".426" stop-color="#554FFA"/><stop offset=".487" stop-color="#504AFF"/><stop offset=".714" stop-color="#8C3EA5"/><stop offset="1" stop-color="#DB2E2E"/></linearGradient><linearGradient id="paint19_linear" x1="312.354" y1="540.344" x2="795.215" y2="672.618" gradientUnits="userSpaceOnUse"><stop stop-color="#FFF154"/><stop offset=".085" stop-color="#CFC383"/><stop offset=".178" stop-color="#A298AF"/><stop offset=".267" stop-color="#7E76D2"/><stop offset=".351" stop-color="#655EEB"/><stop offset=".426" stop-color="#554FFA"/><stop offset=".487" stop-color="#504AFF"/><stop offset=".714" stop-color="#8C3EA5"/><stop offset="1" stop-color="#DB2E2E"/></linearGradient><linearGradient id="paint20_linear" x1="327.808" y1="542.701" x2="793.124" y2="683.074" gradientUnits="userSpaceOnUse"><stop stop-color="#FFF154"/><stop offset=".085" stop-color="#CFC383"/><stop offset=".178" stop-color="#A298AF"/><stop offset=".267" stop-color="#7E76D2"/><stop offset=".351" stop-color="#655EEB"/><stop offset=".426" stop-color="#554FFA"/><stop offset=".487" stop-color="#504AFF"/><stop offset=".714" stop-color="#8C3EA5"/><stop offset="1" stop-color="#DB2E2E"/></linearGradient><linearGradient id="paint21_linear" x1="343.211" y1="545.375" x2="791.07" y2="693.013" gradientUnits="userSpaceOnUse"><stop stop-color="#FFF154"/><stop offset=".085" stop-color="#CFC383"/><stop offset=".178" stop-color="#A298AF"/><stop offset=".267" stop-color="#7E76D2"/><stop offset=".351" stop-color="#655EEB"/><stop offset=".426" stop-color="#554FFA"/><stop offset=".487" stop-color="#504AFF"/><stop offset=".714" stop-color="#8C3EA5"/><stop offset="1" stop-color="#DB2E2E"/></linearGradient><linearGradient id="paint22_linear" x1="358.589" y1="548.376" x2="789.04" y2="702.523" gradientUnits="userSpaceOnUse"><stop stop-color="#FFF154"/><stop offset=".085" stop-color="#CFC383"/><stop offset=".178" stop-color="#A298AF"/><stop offset=".267" stop-color="#7E76D2"/><stop offset=".351" stop-color="#655EEB"/><stop offset=".426" stop-color="#554FFA"/><stop offset=".487" stop-color="#504AFF"/><stop offset=".714" stop-color="#8C3EA5"/><stop offset="1" stop-color="#DB2E2E"/></linearGradient><linearGradient id="paint23_linear" x1="389.308" y1="555.344" x2="784.941" y2="719.936" gradientUnits="userSpaceOnUse"><stop stop-color="#FFF154"/><stop offset=".085" stop-color="#CFC383"/><stop offset=".178" stop-color="#A298AF"/><stop offset=".267" stop-color="#7E76D2"/><stop offset=".351" stop-color="#655EEB"/><stop offset=".426" stop-color="#554FFA"/><stop offset=".487" stop-color="#504AFF"/><stop offset=".714" stop-color="#8C3EA5"/><stop offset="1" stop-color="#DB2E2E"/></linearGradient></defs>
    </symbol>
    <symbol id="icon-vector" >
       <path opacity=".5" clip-rule="evenodd" d="M60.298 1.873c18.397-1.076 39.304-3.505 51.529 10.32 12.659 14.316 9.828 35.613 5.579 54.264-4.248 18.647-11.255 38.308-28.522 46.444-17.131 8.072-36.696 1.075-53.407-7.84-15.698-8.375-29.32-20.997-33.242-38.385-3.913-17.35 1.706-35.631 13.562-48.864 11.075-12.36 27.957-14.97 44.5-15.939z" stroke="#FF485A"/>
    </symbol>
    <symbol id="icon-arrow" >
        <svg width="18" height="19" fill="none" xmlns="http://www.w3.org/2000/svg"><g clip-path="url(#clip0)" fill="#fff"><path d="M10.227 2.328a.703.703 0 00-.002.994l6.164 6.179a.704.704 0 01-.001.995l-6.163 6.178a.703.703 0 00.996.993l6.162-6.177c.411-.412.617-.952.617-1.492s-.206-1.08-.616-1.49L11.22 2.328a.703.703 0 00-.994 0z"/><path d="M0 9.998c0 .388.315.703.703.703H13.43a.703.703 0 000-1.406H.703A.703.703 0 000 9.998z"/></g><defs><clipPath id="clip0"><path fill="#fff" transform="rotate(-90 9.499 9.499)" d="M0 0h18v18H0z"/></clipPath></defs></svg>
    </symbol>
</defs>
</svg>
