<svg width="18" height="19" fill="none" xmlns="http://www.w3.org/2000/svg"><g clip-path="url(#clip0)" fill="#fff"><path d="M10.227 2.328a.703.703 0 00-.002.994l6.164 6.179a.704.704 0 01-.001.995l-6.163 6.178a.703.703 0 00.996.993l6.162-6.177c.411-.412.617-.952.617-1.492s-.206-1.08-.616-1.49L11.22 2.328a.703.703 0 00-.994 0z"/><path d="M0 9.998c0 .388.315.703.703.703H13.43a.703.703 0 000-1.406H.703A.703.703 0 000 9.998z"/></g><defs><clipPath id="clip0"><path fill="#fff" transform="rotate(-90 9.499 9.499)" d="M0 0h18v18H0z"/></clipPath></defs></svg>